<svg width="373" height="672" viewBox="0 0 373 672" fill="none" xmlns="http://www.w3.org/2000/svg">
<g clip-path="url(#clip0_61385_181)">
<rect width="373" height="672" fill="#202024"/>
<circle cx="278" cy="99" r="300" transform="rotate(-180 278 99)" fill="url(#paint0_radial_61385_181)"/>
<circle cx="98" cy="99" r="300" transform="rotate(-180 98 99)" fill="url(#paint1_radial_61385_181)"/>
<mask id="mask0_61385_181" style="mask-type:alpha" maskUnits="userSpaceOnUse" x="0" y="0" width="375" height="812">
<rect width="375" height="812" fill="#202024"/>
</mask>
<g mask="url(#mask0_61385_181)">
<path d="M375 168.101V-310.699L187.478 -418.486L-0.0446777 -310.699V168.101L187.478 275.894L375 168.101Z" fill="url(#paint2_linear_61385_181)"/>
<g style="mix-blend-mode:luminosity" opacity="0.4">
<path d="M1.82673 61.3931V168.797L94.62 222.505L187.413 168.797V61.3931L94.62 7.68577L1.82673 61.3931Z" fill="url(#paint3_linear_61385_181)"/>
<path d="M1.82673 -46.0166V61.3877L94.62 115.095L187.413 61.3877V-46.0166L94.62 -99.7239L1.82673 -46.0166Z" fill="url(#paint4_linear_61385_181)"/>
<path d="M280.207 -99.6961V7.70821L187.413 61.4155L94.6201 7.70821V-99.6961L187.413 -153.403L280.207 -99.6961Z" fill="url(#paint5_linear_61385_181)"/>
<path d="M187.413 168.797V61.3927L280.207 7.68539L373 61.3927V168.797L280.207 222.504L187.413 168.797Z" fill="url(#paint6_linear_61385_181)"/>
<path d="M373 -46.0166V61.3877L280.207 115.095L187.413 61.3877V-46.0166L280.207 -99.7239L373 -46.0166Z" fill="url(#paint7_linear_61385_181)"/>
<path d="M280.207 222.527V115.123L187.413 61.4155L94.6201 115.123L94.6201 222.527L187.413 276.235L280.207 222.527Z" fill="url(#paint8_linear_61385_181)"/>
</g>
</g>
</g>
<defs>
<radialGradient id="paint0_radial_61385_181" cx="0" cy="0" r="1" gradientUnits="userSpaceOnUse" gradientTransform="translate(278 99) rotate(90) scale(300)">
<stop stop-color="#FFC323"/>
<stop offset="1" stop-color="#121214" stop-opacity="0"/>
</radialGradient>
<radialGradient id="paint1_radial_61385_181" cx="0" cy="0" r="1" gradientUnits="userSpaceOnUse" gradientTransform="translate(98 99) rotate(90) scale(300)">
<stop stop-color="#FF3D6E"/>
<stop offset="1" stop-color="#121214" stop-opacity="0"/>
</radialGradient>
<linearGradient id="paint2_linear_61385_181" x1="-67.9497" y1="58.9385" x2="436.115" y2="232.357" gradientUnits="userSpaceOnUse">
<stop stop-color="#FF008E"/>
<stop offset="1" stop-color="#FFCD1E"/>
</linearGradient>
<linearGradient id="paint3_linear_61385_181" x1="94.62" y1="217.565" x2="1.48878" y2="59.4815" gradientUnits="userSpaceOnUse">
<stop offset="0.229167" stop-color="#576EE5" stop-opacity="0.63"/>
<stop offset="1" stop-color="#FF008E" stop-opacity="0"/>
</linearGradient>
<linearGradient id="paint4_linear_61385_181" x1="94.62" y1="110.155" x2="1.48876" y2="-47.9282" gradientUnits="userSpaceOnUse">
<stop offset="0.229167" stop-color="#576EE5" stop-opacity="0.63"/>
<stop offset="1" stop-color="#FF008E" stop-opacity="0"/>
</linearGradient>
<linearGradient id="paint5_linear_61385_181" x1="94.6202" y1="-105.732" x2="280.448" y2="5.8065" gradientUnits="userSpaceOnUse">
<stop stop-color="#FF008E" stop-opacity="0"/>
<stop offset="1" stop-color="#FFCD1E"/>
</linearGradient>
<linearGradient id="paint6_linear_61385_181" x1="373" y1="174.833" x2="187.172" y2="63.2944" gradientUnits="userSpaceOnUse">
<stop stop-color="#FF008E" stop-opacity="0"/>
<stop offset="1" stop-color="#FFCD1E"/>
</linearGradient>
<linearGradient id="paint7_linear_61385_181" x1="280.207" y1="110.155" x2="373.338" y2="-47.9282" gradientUnits="userSpaceOnUse">
<stop offset="0.229167" stop-color="#576EE5" stop-opacity="0.63"/>
<stop offset="1" stop-color="#FF008E" stop-opacity="0"/>
</linearGradient>
<linearGradient id="paint8_linear_61385_181" x1="187.413" y1="66.3552" x2="280.545" y2="224.439" gradientUnits="userSpaceOnUse">
<stop offset="0.229167" stop-color="#576EE5" stop-opacity="0.63"/>
<stop offset="1" stop-color="#FF008E" stop-opacity="0"/>
</linearGradient>
<clipPath id="clip0_61385_181">
<rect width="373" height="672" fill="white"/>
</clipPath>
</defs>
</svg>
