<svg width="48" height="48" viewBox="0 0 48 48" fill="none" xmlns="http://www.w3.org/2000/svg">
<rect width="48" height="48" fill="#323238"/>
<g clip-path="url(#clip0_61385_404)">
<path d="M36.6849 16.8455C35.7603 17.236 34.7804 17.4936 33.7769 17.6099C34.8352 17.0044 35.627 16.0518 36.0048 14.9296C35.0115 15.4966 33.9234 15.8957 32.7882 16.1093C32.0948 15.3978 31.1931 14.9026 30.2007 14.6883C29.2084 14.474 28.1715 14.5505 27.2254 14.9079C26.2792 15.2653 25.4677 15.887 24.8968 16.6918C24.3259 17.4966 24.022 18.4472 24.0248 19.4196C24.0229 19.7917 24.0668 20.1628 24.1556 20.525C22.1396 20.4296 20.1674 19.9287 18.3677 19.0552C16.5679 18.1817 14.9812 16.9552 13.7111 15.4558C13.0631 16.5232 12.8653 17.7867 13.1579 18.9887C13.4505 20.1908 14.2116 21.2409 15.2861 21.9254C14.4786 21.9063 13.6882 21.6985 12.9841 21.3202V21.3803C12.9836 22.4996 13.3885 23.5846 14.1302 24.4509C14.8718 25.3171 15.9043 25.9112 17.0523 26.1323C16.6174 26.245 16.1687 26.3021 15.7181 26.3021C15.3985 26.3027 15.0797 26.2727 14.7664 26.2125C15.09 27.1751 15.7204 28.017 16.5694 28.6203C17.4184 29.2236 18.4434 29.5581 19.5012 29.5771C17.7065 30.9254 15.489 31.6564 13.2063 31.6522C12.8024 31.6517 12.3989 31.6285 11.9979 31.5826C14.3045 33.0172 16.9986 33.778 19.7505 33.7722C21.6488 33.7849 23.5308 33.4368 25.2871 32.7482C27.0434 32.0596 28.639 31.0441 29.9811 29.7609C31.3232 28.4777 32.385 26.9523 33.1049 25.2734C33.8248 23.5945 34.1883 21.7956 34.1743 19.9812C34.1743 19.7712 34.1743 19.5612 34.1583 19.3559C35.1498 18.6691 36.0053 17.8191 36.6849 16.8455Z" fill="#2B88DD"/>
</g>
<defs>
<clipPath id="clip0_61385_404">
<rect width="24.6857" height="19.2" fill="white" transform="translate(12 14.5712)"/>
</clipPath>
</defs>
</svg>
